<?xml version="1.0" encoding="UTF-8" standalone="no"?>
<svg
   xmlns:dc="http://purl.org/dc/elements/1.1/"
   xmlns:cc="http://creativecommons.org/ns#"
   xmlns:rdf="http://www.w3.org/1999/02/22-rdf-syntax-ns#"
   xmlns:svg="http://www.w3.org/2000/svg"
   xmlns="http://www.w3.org/2000/svg"
   xmlns:sodipodi="http://sodipodi.sourceforge.net/DTD/sodipodi-0.dtd"
   xmlns:inkscape="http://www.inkscape.org/namespaces/inkscape"
   inkscape:version="1.0alpha (9dee831, 2019-01-15)"
   height="99.831604"
   width="97.171783"
   sodipodi:docname="icon.svg"
   version="1.1"
   viewBox="0 0 97.171781 99.8316"
   id="svg2">
  <defs
     id="defs10" />
  <sodipodi:namedview
     inkscape:current-layer="g2844"
     inkscape:window-maximized="0"
     inkscape:window-y="602"
     inkscape:window-x="744"
     inkscape:cy="64.632425"
     inkscape:cx="40.718978"
     inkscape:zoom="4.7583045"
     fit-margin-bottom="0"
     fit-margin-right="0"
     fit-margin-left="0"
     fit-margin-top="0"
     showgrid="false"
     id="namedview8"
     inkscape:window-height="1253"
     inkscape:window-width="2175"
     inkscape:pageshadow="2"
     inkscape:pageopacity="0"
     guidetolerance="10"
     gridtolerance="10"
     objecttolerance="10"
     borderopacity="1"
     inkscape:document-rotation="0"
     bordercolor="#666666"
     pagecolor="#ffffff" />
  <metadata
     id="metadata7">
    <rdf:RDF>
      <cc:Work
         rdf:about="">
        <dc:format>image/svg+xml</dc:format>
        <dc:type
           rdf:resource="http://purl.org/dc/dcmitype/StillImage" />
        <dc:title></dc:title>
      </cc:Work>
    </rdf:RDF>
  </metadata>
  <g
     id="g2844"
     fill-rule="evenodd"
     fill="#9a3731"
     transform="matrix(0.9576674,0,0,0.9576674,-465.47414,-141.47817)"
     style="opacity:1;stop-opacity:1">
    <path
       id="path2830"
       d="m 486.05,209.29 v 1.0588 c 0,2.2488 1.4912,4.3462 2.435,5.8562 l 3.215,5.2562 2.2912,-23.989 -4.5175,5.3612 c -1.2812,1.7175 -3.4238,3.6238 -3.4238,6.4562 z m 58.459,-22.565 2.5988,-0.0125 v 6.35 h -1.765 v -3.5275 l -1.0962,3.5162 -1.3025,0.0112 -1.3062,-3.6125 v 3.6125 h -1.5888 v -6.3625 h 2.4025 l 1.0888,3.5775 0.96875,-3.5525 z m -4.9812,-0.0125 -0.007,1.7638 h -1.9412 v 4.5862 h -2.1175 v -4.5862 h -1.9412 v -1.7638 h 6.0075 z m -39.008,2.9988 4.0375,-0.355 -2.805,41.48 -4.9375,-0.7325 9.4838,16.264 c 1.62,2.7788 3.87,5.4875 6.5738,5.6088 h 0.35375 c 2.2738,-0.36125 4.4612,-2.1625 5.5038,-3.495 l 13.201,-13.791 -0.535,0.045 -13.976,-1.81 0.4025,-17.986 c -0.2025,-2.1212 -3.2825,-1.885 -4.5212,-1.8812 l -6.075,-0.0637 -1.8975,0.002 0.48625,-8.49 9.0062,-0.3125 c 1.8912,-0.065 3.3462,-0.55375 3.3462,-3.0175 v -3.175 c 0,-1.7238 -1.5438,-2.415 -3.525,-2.255 l -8.2938,0.6675 0.34625,-7.4225 16.766,-2.1025 h 2.2938 c 1.7875,0 3.8712,1.9212 4.72,3.0438 1.2662,1.675 1.4562,3.4175 1.4562,6.305 0,8.1962 0.7875,6.9562 -2.8238,12.346 1.0812,1.6138 1.9938,1.9175 2.715,4.3438 0.65,2.19 0.63875,3.8462 0.63875,6.5925 0,4.9488 0.17625,9.32 0.17625,14.288 l 51.74,-52.696 c 1.6562,-1.6862 3.14,-3.8325 3.14,-5.8638 v -0.35375 c 0,-3.5312 -2.835,-5.7188 -5.8512,-7.1825 l -38.498,-18.679 c -1.365,-0.6625 -2.6562,-1.3012 -4.1788,-1.3012 -5.0462,0 -8.6375,5.9038 -11.165,8.9462 l -27.305,33.034"
       inkscape:connector-curvature="0" />
  </g>
</svg>
